<svg id="Layer_1" height="512" viewBox="0 0 128 128" width="512" xmlns="http://www.w3.org/2000/svg">
    <path d="m121.5 64-12.444 12.077 4.746 16.681-16.827 4.217-4.217 16.827-16.681-4.746-12.077 12.444-12.077-12.444-16.681 4.746-4.217-16.827-16.827-4.217 4.746-16.681-12.444-12.077 12.444-12.077-4.746-16.681 16.827-4.217 4.217-16.827 16.681 4.746 12.077-12.444 12.077 12.444 16.681-4.746 4.217 16.827 16.827 4.217-4.746 16.681z"
          fill="#f3ba33"/>
    <circle cx="64" cy="64" fill="#f3d55b" r="34.167"/>
    <path d="m91.406 59.243a1.751 1.751 0 0 1 -1.7-1.346 26.5 26.5 0 0 0 -13.145-17.131 1.75 1.75 0 1 1 1.67-3.076 30 30 0 0 1 14.879 19.4 1.75 1.75 0 0 1 -1.3 2.107 1.718 1.718 0 0 1 -.404.046z"
          fill="#f3ba33"/>
</svg>